<svg width="20" height="20" viewBox="0 0 20 20" fill="none" xmlns="http://www.w3.org/2000/svg">
    <path
        d="M9.5835 3.33325H5.00016C4.07969 3.33325 3.3335 4.07944 3.3335 4.99992V14.9999C3.3335 15.9204 4.07969 16.6666 5.00016 16.6666H15.0002C15.9206 16.6666 16.6668 15.9204 16.6668 14.9999V10.4166"
        stroke="#78707C" stroke-width="1.66667" stroke-linecap="round" stroke-linejoin="round" />
    <path d="M6.66683 6.66675L8.3335 6.66675" stroke="#78707C" stroke-width="1.66667" stroke-linecap="round"
        stroke-linejoin="round" />
    <path d="M6.6665 13.3333L11.6665 13.3333" stroke="#78707C" stroke-width="1.66667" stroke-linecap="round"
        stroke-linejoin="round" />
    <path d="M6.66683 10H8.3335" stroke="#78707C" stroke-width="1.66667" stroke-linecap="round"
        stroke-linejoin="round" />
    <path
        d="M13.7498 8.74992L13.7498 9.58325C13.9709 9.58325 14.1828 9.49545 14.3391 9.33917L13.7498 8.74992ZM11.2498 6.24992L10.6606 5.66066C10.5043 5.81694 10.4165 6.0289 10.4165 6.24992L11.2498 6.24992ZM11.2498 8.74992L10.4165 8.74992C10.4165 8.97093 10.5043 9.18289 10.6606 9.33917C10.8169 9.49545 11.0288 9.58325 11.2498 9.58325L11.2498 8.74992ZM17.3272 3.994L16.738 4.58325L17.3272 3.994ZM16.0058 2.67251L15.4165 3.26176L16.0058 2.67251ZM15.4165 3.26176L16.738 4.58325L17.9165 3.40474L16.595 2.08325L15.4165 3.26176ZM16.738 4.58325L13.1606 8.16066L14.3391 9.33917L17.9165 5.76176L16.738 4.58325ZM11.8391 6.83917L15.4165 3.26176L14.238 2.08325L10.6606 5.66066L11.8391 6.83917ZM13.7498 7.91659H11.2498L11.2498 9.58325L13.7498 9.58325L13.7498 7.91659ZM12.0832 8.74992L12.0832 6.24992L10.4165 6.24992L10.4165 8.74992L12.0832 8.74992ZM16.738 4.58325L16.738 4.58325L17.9165 5.76176C18.5674 5.11089 18.5674 4.05562 17.9165 3.40474L16.738 4.58325ZM16.595 2.08325C15.9441 1.43238 14.8889 1.43238 14.238 2.08325L15.4165 3.26176L15.4165 3.26176L16.595 2.08325Z"
        fill="#78707C" />
</svg>