<svg width="20" height="20" viewBox="0 0 20 20" fill="none" xmlns="http://www.w3.org/2000/svg">
    <path
        d="M13.3333 17.4999L13.3333 18.3333C13.5543 18.3333 13.7663 18.2455 13.9226 18.0892L13.3333 17.4999ZM10.8333 14.9999L10.2441 14.4107C10.0878 14.5669 10 14.7789 10 14.9999L10.8333 14.9999ZM10.8333 17.4999L10 17.4999C10 17.7209 10.0878 17.9329 10.2441 18.0892C10.4004 18.2455 10.6123 18.3333 10.8333 18.3333L10.8333 17.4999ZM16.9107 12.744L16.3215 13.3333L16.9107 12.744ZM15.5893 11.4225L15 12.0118L15.5893 11.4225ZM15 12.0118L16.3215 13.3333L17.5 12.1547L16.1785 10.8333L15 12.0118ZM16.3215 13.3333L12.7441 16.9107L13.9226 18.0892L17.5 14.5118L16.3215 13.3333ZM11.4226 15.5892L15 12.0118L13.8215 10.8333L10.2441 14.4107L11.4226 15.5892ZM13.3333 16.6666H10.8333L10.8333 18.3333L13.3333 18.3333L13.3333 16.6666ZM11.6667 17.4999L11.6667 14.9999L10 14.9999L10 17.4999L11.6667 17.4999ZM16.3215 13.3333L16.3215 13.3333L17.5 14.5118C18.1509 13.8609 18.1509 12.8056 17.5 12.1547L16.3215 13.3333ZM16.1785 10.8333C15.5276 10.1824 14.4724 10.1824 13.8215 10.8333L15 12.0118L15 12.0118L16.1785 10.8333Z"
        fill="#78707C" />
    <path
        d="M5 2.5V1.66667C4.53976 1.66667 4.16667 2.03976 4.16667 2.5H5ZM5 17.5H4.16667C4.16667 17.9602 4.53976 18.3333 5 18.3333V17.5ZM15 8.33333C15 8.79357 15.3731 9.16667 15.8333 9.16667C16.2936 9.16667 16.6667 8.79357 16.6667 8.33333H15ZM7.91667 18.3333C8.3769 18.3333 8.75 17.9602 8.75 17.5C8.75 17.0398 8.3769 16.6667 7.91667 16.6667V18.3333ZM5 3.33333H14.1667V1.66667H5V3.33333ZM5.83333 17.5V2.5H4.16667V17.5H5.83333ZM15 4.16667V8.33333H16.6667V4.16667H15ZM7.91667 16.6667H5V18.3333H7.91667V16.6667ZM14.1667 3.33333C14.6269 3.33333 15 3.70643 15 4.16667H16.6667C16.6667 2.78596 15.5474 1.66667 14.1667 1.66667V3.33333Z"
        fill="#78707C" />
    <path d="M5.8335 5.83325H3.3335" stroke="#78707C" stroke-width="1.66667" stroke-linecap="round"
        stroke-linejoin="round" />
    <path d="M5.8335 10H3.3335" stroke="#78707C" stroke-width="1.66667" stroke-linecap="round"
        stroke-linejoin="round" />
    <path d="M5.8335 14.1667H3.3335" stroke="#78707C" stroke-width="1.66667" stroke-linecap="round"
        stroke-linejoin="round" />
</svg>